<?xml version="1.0" encoding="UTF-8"?>
<svg width="294px" height="74px" viewBox="0 0 294 74" version="1.1" xmlns="http://www.w3.org/2000/svg" xmlns:xlink="http://www.w3.org/1999/xlink">
    <!-- Generator: Sketch 41.2 (35397) - http://www.bohemiancoding.com/sketch -->
    <title>BHIM_Logo</title>
    <desc>Created with Sketch.</desc>
    <defs></defs>
    <g id="Page-1" stroke="none" stroke-width="1" fill="none" fill-rule="evenodd">
        <g id="BHIM_Logo">
            <polygon id="Fill-1" fill="#008143" points="279.3663 0.8891 293.7453 29.4851 263.5193 58.0731"></polygon>
            <polygon id="Fill-2" fill="#E5702A" points="269.287 0.8891 283.655 29.4851 253.416 58.0731"></polygon>
            <g id="Group-57" transform="translate(0.000000, 0.690000)">
                <path d="M64.7051,41.6885 C63.6021,44.0125 61.3691,45.6975 58.7061,46.0345 L56.7371,46.0345 L18.1011,46.0345 L21.3661,34.3405 L51.1781,34.3405 L60.3761,34.3405 L62.3671,34.3405 C63.8591,34.7115 65.0281,35.8925 65.3711,37.3905 C65.4161,37.7265 65.4481,38.0665 65.4481,38.4165 C65.4481,38.5935 65.4341,38.7685 65.4201,38.9455 C65.4161,39.0185 65.4161,39.0915 65.4101,39.1645 L64.7051,41.6885 Z M27.7511,11.4665 L57.5331,11.4665 L66.8581,11.4665 L68.8261,11.4665 C69.9511,11.7435 70.8941,12.4755 71.4391,13.4605 C71.6411,14.1465 71.7541,14.8695 71.7541,15.6205 C71.7541,16.0235 71.7141,16.4135 71.6551,16.7995 L71.5481,17.1745 L71.1501,18.6045 C70.0961,21.0915 67.7641,22.9065 64.9741,23.2455 L63.0821,23.2455 L24.4631,23.2455 L27.7511,11.4665 Z M70.5311,55.5045 C71.9441,54.4195 72.8731,53.0775 73.3211,51.4755 L78.1031,34.3405 C78.5391,32.7845 78.3491,31.4755 77.5351,30.4195 C76.7201,29.3645 75.5161,28.8345 73.9251,28.8345 C75.5161,28.8345 77.0201,28.2925 78.4321,27.2105 C79.8431,26.1235 80.7681,24.8025 81.2021,23.2455 L85.9801,6.1315 C86.4441,4.4685 86.2871,3.0945 85.5111,2.0035 C84.7341,0.9155 83.5201,0.3705 81.8711,0.3705 L19.5021,0.3705 L3.6551,57.1315 L66.0241,57.1315 C67.6171,57.1315 69.1191,56.5895 70.5311,55.5045 L70.5311,55.5045 Z" id="Fill-3" fill="#636462"></path>
                <polygon id="Fill-5" fill="#636462" points="151.3151 0.4189 145.0441 23.2179 100.0531 23.2179 106.3251 0.4189 95.1371 0.4189 79.5731 56.9919 90.7621 56.9919 97.0081 34.2889 141.9991 34.2889 135.7521 56.9919 146.9421 56.9919 162.5061 0.4189"></polygon>
                <polygon id="Fill-7" fill="#636462" points="165.7578 57.1704 154.4948 57.1704 170.1578 0.6104 181.4188 0.6104"></polygon>
                <polygon id="Fill-9" fill="#636462" points="259.7327 0.5604 213.0057 40.1634 196.7047 13.0764 189.1717 0.5604 188.9687 0.5604 185.4217 13.4144 173.4057 56.9544 184.5947 56.9544 193.0177 26.4354 210.8657 57.0284 240.4087 29.9504 232.9987 56.9544 244.1897 56.9544 255.1117 17.3744 259.7527 0.5604"></polygon>
                <path d="M2.8224,67.5139 L3.3734,67.5139 C4.0594,67.5139 4.5664,67.4249 4.8934,67.2479 C5.2204,67.0709 5.4344,66.7729 5.5354,66.3539 C5.6444,65.8959 5.5894,65.5759 5.3724,65.3899 C5.1534,65.2049 4.6784,65.1139 3.9484,65.1139 L3.3974,65.1139 L2.8224,67.5139 Z M1.9374,71.2119 L2.4344,71.2119 C2.9384,71.2119 3.3204,71.1939 3.5804,71.1559 C3.8394,71.1179 4.0524,71.0509 4.2214,70.9549 C4.4254,70.8449 4.5974,70.6959 4.7394,70.5099 C4.8814,70.3229 4.9784,70.1179 5.0324,69.8929 C5.0964,69.6249 5.0934,69.3929 5.0244,69.1949 C4.9544,68.9969 4.8244,68.8419 4.6334,68.7319 C4.5104,68.6669 4.3654,68.6179 4.1974,68.5879 C4.0284,68.5579 3.8004,68.5429 3.5094,68.5429 L3.0734,68.5429 L2.5764,68.5429 L1.9374,71.2119 Z M0.2554,72.3509 L2.2584,63.9819 L4.4914,63.9819 C5.1294,63.9819 5.5934,64.0139 5.8824,64.0779 C6.1724,64.1429 6.4054,64.2499 6.5844,64.3989 C6.8124,64.5889 6.9664,64.8389 7.0434,65.1479 C7.1214,65.4559 7.1144,65.7969 7.0254,66.1699 C6.9184,66.6169 6.7204,66.9899 6.4314,67.2879 C6.1404,67.5869 5.7744,67.7959 5.3304,67.9139 C5.8284,67.9909 6.1824,68.2119 6.3904,68.5799 C6.5994,68.9489 6.6364,69.4119 6.5034,69.9719 C6.4224,70.3109 6.2824,70.6329 6.0844,70.9379 C5.8854,71.2429 5.6464,71.5019 5.3644,71.7159 C5.0664,71.9489 4.7264,72.1119 4.3454,72.2079 C3.9634,72.3029 3.3484,72.3509 2.5014,72.3509 L0.2554,72.3509 Z" id="Fill-11" fill="#343433"></path>
                <polygon id="Fill-13" fill="#343433" points="11.1447 72.3508 13.1477 63.9818 14.5877 63.9818 13.8497 67.0678 18.2087 67.0678 18.9477 63.9818 20.3887 63.9818 18.3857 72.3508 16.9447 72.3508 17.9167 68.2858 13.5577 68.2858 12.5847 72.3508"></polygon>
                <path d="M26.821,69.0637 L29.292,69.0637 L28.841,67.1537 C28.817,67.0317 28.796,66.8917 28.778,66.7337 C28.759,66.5767 28.745,66.3997 28.735,66.2047 C28.642,66.3877 28.551,66.5577 28.458,66.7157 C28.365,66.8747 28.275,67.0207 28.187,67.1537 L26.821,69.0637 Z M30.019,72.3507 L29.529,70.1957 L26.018,70.1957 L24.473,72.3507 L22.959,72.3507 L29.335,63.6497 L31.538,72.3507 L30.019,72.3507 Z" id="Fill-15" fill="#343433"></path>
                <path d="M38.7092,67.548 L38.9702,67.548 C39.7322,67.548 40.2592,67.465 40.5492,67.297 C40.8402,67.129 41.0362,66.831 41.1382,66.404 C41.2482,65.944 41.1922,65.618 40.9692,65.431 C40.7452,65.241 40.2712,65.148 39.5442,65.148 L39.2832,65.148 L38.7092,67.548 Z M38.3652,68.606 L37.4692,72.351 L36.1192,72.351 L38.1222,63.982 L40.1322,63.982 C40.7212,63.982 41.1692,64.018 41.4782,64.089 C41.7852,64.161 42.0342,64.282 42.2242,64.449 C42.4502,64.652 42.6002,64.913 42.6722,65.233 C42.7452,65.553 42.7352,65.903 42.6452,66.284 C42.4832,66.956 42.1862,67.481 41.7522,67.86 C41.3192,68.238 40.7582,68.467 40.0692,68.543 L42.2102,72.351 L40.5812,72.351 L38.5292,68.606 L38.3652,68.606 Z" id="Fill-17" fill="#343433"></path>
                <path d="M49.4655,69.0637 L51.9365,69.0637 L51.4855,67.1537 C51.4615,67.0317 51.4405,66.8917 51.4225,66.7337 C51.4035,66.5767 51.3895,66.3997 51.3795,66.2047 C51.2865,66.3877 51.1955,66.5577 51.1025,66.7157 C51.0095,66.8747 50.9195,67.0207 50.8315,67.1537 L49.4655,69.0637 Z M52.6635,72.3507 L52.1735,70.1957 L48.6625,70.1957 L47.1175,72.3507 L45.6035,72.3507 L51.9795,63.6497 L54.1825,72.3507 L52.6635,72.3507 Z" id="Fill-19" fill="#343433"></path>
                <polygon id="Fill-21" fill="#343433" points="62.6759 65.1359 60.9489 72.3509 59.5089 72.3509 61.2359 65.1359 58.8799 65.1359 59.1559 63.9819 65.2959 63.9819 65.0199 65.1359"></polygon>
                <polygon id="Fill-23" fill="#343433" points="75.6496 72.3508 77.6526 63.9818 79.0936 63.9818 77.0906 72.3508"></polygon>
                <path d="M82.9064,72.3508 L84.9894,63.6498 L89.3954,68.7658 C89.5134,68.9108 89.6324,69.0658 89.7504,69.2288 C89.8684,69.3928 89.9894,69.5788 90.1134,69.7838 L91.5024,63.9818 L92.8344,63.9818 L90.7534,72.6758 L86.2554,67.4678 C86.1344,67.3278 86.0224,67.1788 85.9164,67.0228 C85.8094,66.8658 85.7134,66.7028 85.6244,66.5308 L84.2314,72.3508 L82.9064,72.3508 Z" id="Fill-25" fill="#343433"></path>
                <polygon id="Fill-27" fill="#343433" points="101.2013 65.1359 99.4743 72.3509 98.0343 72.3509 99.7613 65.1359 97.4053 65.1359 97.6813 63.9819 103.8213 63.9819 103.5453 65.1359"></polygon>
                <polygon id="Fill-29" fill="#343433" points="106.6652 72.3508 108.6682 63.9818 113.6142 63.9818 113.3382 65.1358 109.8322 65.1358 109.3302 67.2348 112.8362 67.2348 112.5502 68.4288 109.0442 68.4288 108.3962 71.1328 111.9022 71.1328 111.6112 72.3508"></polygon>
                <path d="M119.5988,67.548 L119.8598,67.548 C120.6218,67.548 121.1488,67.465 121.4388,67.297 C121.7298,67.129 121.9258,66.831 122.0278,66.404 C122.1378,65.944 122.0818,65.618 121.8588,65.431 C121.6348,65.241 121.1608,65.148 120.4338,65.148 L120.1728,65.148 L119.5988,67.548 Z M119.2548,68.606 L118.3588,72.351 L117.0088,72.351 L119.0118,63.982 L121.0218,63.982 C121.6108,63.982 122.0588,64.018 122.3678,64.089 C122.6748,64.161 122.9238,64.282 123.1138,64.449 C123.3398,64.652 123.4898,64.913 123.5618,65.233 C123.6348,65.553 123.6248,65.903 123.5348,66.284 C123.3728,66.956 123.0758,67.481 122.6418,67.86 C122.2088,68.238 121.6478,68.467 120.9588,68.543 L123.0998,72.351 L121.4708,72.351 L119.4188,68.606 L119.2548,68.606 Z" id="Fill-31" fill="#343433"></path>
                <polygon id="Fill-33" fill="#343433" points="127.6984 72.3508 129.7014 63.9818 134.6474 63.9818 134.3714 65.1358 130.8654 65.1358 130.3664 67.2228 133.8724 67.2228 133.5864 68.4168 130.0804 68.4168 129.1384 72.3508"></polygon>
                <path d="M140.1667,69.0637 L142.6377,69.0637 L142.1867,67.1537 C142.1627,67.0317 142.1417,66.8917 142.1237,66.7337 C142.1047,66.5767 142.0907,66.3997 142.0807,66.2047 C141.9877,66.3877 141.8967,66.5577 141.8037,66.7157 C141.7107,66.8747 141.6207,67.0207 141.5327,67.1537 L140.1667,69.0637 Z M143.3647,72.3507 L142.8747,70.1957 L139.3637,70.1957 L137.8187,72.3507 L136.3047,72.3507 L142.6807,63.6497 L144.8837,72.3507 L143.3647,72.3507 Z" id="Fill-35" fill="#343433"></path>
                <path d="M157.8771,66.0168 C157.5481,65.6878 157.1761,65.4428 156.7611,65.2788 C156.3461,65.1158 155.8881,65.0328 155.3881,65.0328 C154.4191,65.0328 153.5601,65.3268 152.8131,65.9128 C152.0651,66.4998 151.5791,67.2608 151.3551,68.1948 C151.1391,69.0978 151.2561,69.8428 151.7081,70.4288 C152.1581,71.0168 152.8341,71.3098 153.7341,71.3098 C154.2591,71.3098 154.7781,71.2218 155.2951,71.0468 C155.8121,70.8708 156.3301,70.6068 156.8511,70.2518 L156.4821,71.7898 C156.0321,72.0528 155.5631,72.2488 155.0761,72.3788 C154.5891,72.5078 154.0791,72.5738 153.5461,72.5738 C152.8681,72.5738 152.2671,72.4678 151.7411,72.2588 C151.2161,72.0488 150.7851,71.7408 150.4461,71.3328 C150.1111,70.9328 149.8921,70.4608 149.7891,69.9178 C149.6881,69.3748 149.7101,68.7958 149.8561,68.1828 C150.0041,67.5698 150.2581,66.9928 150.6181,66.4538 C150.9801,65.9138 151.4291,65.4408 151.9671,65.0328 C152.5051,64.6208 153.0851,64.3098 153.7051,64.0978 C154.3241,63.8858 154.9651,63.7808 155.6271,63.7808 C156.1481,63.7808 156.6271,63.8518 157.0651,63.9958 C157.5031,64.1378 157.9091,64.3548 158.2841,64.6438 L157.8771,66.0168 Z" id="Fill-37" fill="#343433"></path>
                <polygon id="Fill-39" fill="#343433" points="161.8918 72.3508 163.8948 63.9818 168.8408 63.9818 168.5648 65.1358 165.0588 65.1358 164.5568 67.2348 168.0628 67.2348 167.7768 68.4288 164.2708 68.4288 163.6228 71.1328 167.1288 71.1328 166.8378 72.3508"></polygon>
                <polygon id="Fill-41" fill="#343433" points="179.7228 72.3508 181.7258 63.9818 186.6718 63.9818 186.3958 65.1358 182.8898 65.1358 182.3908 67.2228 185.8968 67.2228 185.6108 68.4168 182.1048 68.4168 181.1628 72.3508"></polygon>
                <path d="M198.5588,68.1828 C198.6608,67.7588 198.6748,67.3578 198.6028,66.9768 C198.5308,66.5958 198.3768,66.2558 198.1418,65.9578 C197.9128,65.6648 197.6208,65.4398 197.2648,65.2818 C196.9088,65.1238 196.5138,65.0438 196.0778,65.0438 C195.6418,65.0438 195.2078,65.1228 194.7768,65.2788 C194.3458,65.4358 193.9418,65.6618 193.5638,65.9578 C193.1858,66.2518 192.8718,66.5898 192.6188,66.9708 C192.3668,67.3518 192.1888,67.7558 192.0858,68.1828 C191.9858,68.6058 191.9708,69.0058 192.0408,69.3828 C192.1138,69.7598 192.2658,70.0978 192.5018,70.3948 C192.7378,70.6918 193.0328,70.9188 193.3858,71.0758 C193.7408,71.2318 194.1378,71.3098 194.5778,71.3098 C195.0098,71.3098 195.4388,71.2318 195.8658,71.0758 C196.2928,70.9188 196.6968,70.6918 197.0798,70.3948 C197.4568,70.0978 197.7738,69.7588 198.0278,69.3798 C198.2818,69.0008 198.4588,68.6018 198.5588,68.1828 M200.0608,68.1828 C199.9188,68.7778 199.6658,69.3398 199.3028,69.8698 C198.9398,70.3988 198.4828,70.8708 197.9318,71.2868 C197.3758,71.7028 196.7848,72.0208 196.1588,72.2428 C195.5328,72.4618 194.9048,72.5738 194.2748,72.5738 C193.6368,72.5738 193.0558,72.4608 192.5298,72.2398 C192.0038,72.0158 191.5678,71.6988 191.2228,71.2868 C190.8698,70.8708 190.6398,70.4008 190.5308,69.8748 C190.4238,69.3488 190.4418,68.7858 190.5848,68.1828 C190.7288,67.5838 190.9808,67.0208 191.3408,66.4908 C191.7028,65.9598 192.1588,65.4868 192.7108,65.0668 C193.2628,64.6518 193.8508,64.3348 194.4768,64.1188 C195.1018,63.9008 195.7348,63.7918 196.3768,63.7918 C197.0148,63.7918 197.5928,63.9008 198.1128,64.1188 C198.6318,64.3348 199.0678,64.6518 199.4198,65.0668 C199.7708,65.4908 200.0008,65.9668 200.1098,66.4988 C200.2188,67.0308 200.2028,67.5918 200.0608,68.1828" id="Fill-43" fill="#343433"></path>
                <path d="M207.0519,67.548 L207.3129,67.548 C208.0749,67.548 208.6019,67.465 208.8919,67.297 C209.1829,67.129 209.3789,66.831 209.4809,66.404 C209.5909,65.944 209.5349,65.618 209.3119,65.431 C209.0879,65.241 208.6139,65.148 207.8869,65.148 L207.6259,65.148 L207.0519,67.548 Z M206.7079,68.606 L205.8119,72.351 L204.4619,72.351 L206.4649,63.982 L208.4749,63.982 C209.0639,63.982 209.5119,64.018 209.8209,64.089 C210.1279,64.161 210.3769,64.282 210.5669,64.449 C210.7929,64.652 210.9429,64.913 211.0149,65.233 C211.0879,65.553 211.0779,65.903 210.9879,66.284 C210.8259,66.956 210.5289,67.481 210.0949,67.86 C209.6619,68.238 209.1009,68.467 208.4119,68.543 L210.5529,72.351 L208.9239,72.351 L206.8719,68.606 L206.7079,68.606 Z" id="Fill-45" fill="#343433"></path>
                <path d="M230.8556,68.217 C230.8556,68.153 230.8726,67.973 230.9066,67.68 C230.9326,67.436 230.9526,67.235 230.9656,67.073 C230.8846,67.265 230.7876,67.454 230.6746,67.646 C230.5626,67.836 230.4326,68.03 230.2846,68.229 L226.8976,72.688 L225.6676,68.137 C225.6156,67.95 225.5746,67.77 225.5466,67.594 C225.5186,67.418 225.4986,67.245 225.4866,67.073 C225.4406,67.249 225.3806,67.433 225.3086,67.625 C225.2376,67.819 225.1486,68.019 225.0466,68.229 L223.1096,72.351 L221.7836,72.351 L225.9666,63.626 L227.3176,68.908 C227.3376,68.993 227.3666,69.132 227.4026,69.326 C227.4386,69.52 227.4816,69.76 227.5296,70.046 C227.6726,69.806 227.8776,69.501 228.1486,69.132 C228.2206,69.032 228.2746,68.957 228.3126,68.903 L232.1296,63.626 L232.1856,72.351 L230.8476,72.351 L230.8556,68.217 Z" id="Fill-47" fill="#343433"></path>
                <path d="M245.6642,68.1828 C245.7662,67.7588 245.7802,67.3578 245.7082,66.9768 C245.6362,66.5958 245.4822,66.2558 245.2472,65.9578 C245.0182,65.6648 244.7262,65.4398 244.3702,65.2818 C244.0142,65.1238 243.6192,65.0438 243.1832,65.0438 C242.7472,65.0438 242.3132,65.1228 241.8822,65.2788 C241.4512,65.4358 241.0472,65.6618 240.6692,65.9578 C240.2912,66.2518 239.9772,66.5898 239.7242,66.9708 C239.4722,67.3518 239.2942,67.7558 239.1912,68.1828 C239.0912,68.6058 239.0762,69.0058 239.1462,69.3828 C239.2192,69.7598 239.3712,70.0978 239.6072,70.3948 C239.8432,70.6918 240.1382,70.9188 240.4912,71.0758 C240.8462,71.2318 241.2432,71.3098 241.6832,71.3098 C242.1152,71.3098 242.5442,71.2318 242.9712,71.0758 C243.3982,70.9188 243.8022,70.6918 244.1852,70.3948 C244.5622,70.0978 244.8792,69.7588 245.1332,69.3798 C245.3872,69.0008 245.5642,68.6018 245.6642,68.1828 M247.1662,68.1828 C247.0242,68.7778 246.7712,69.3398 246.4082,69.8698 C246.0452,70.3988 245.5882,70.8708 245.0372,71.2868 C244.4812,71.7028 243.8902,72.0208 243.2642,72.2428 C242.6382,72.4618 242.0102,72.5738 241.3802,72.5738 C240.7422,72.5738 240.1612,72.4608 239.6352,72.2398 C239.1092,72.0158 238.6732,71.6988 238.3282,71.2868 C237.9752,70.8708 237.7452,70.4008 237.6362,69.8748 C237.5292,69.3488 237.5472,68.7858 237.6902,68.1828 C237.8342,67.5838 238.0862,67.0208 238.4462,66.4908 C238.8082,65.9598 239.2642,65.4868 239.8162,65.0668 C240.3682,64.6518 240.9562,64.3348 241.5822,64.1188 C242.2072,63.9008 242.8402,63.7918 243.4822,63.7918 C244.1202,63.7918 244.6982,63.9008 245.2182,64.1188 C245.7372,64.3348 246.1732,64.6518 246.5252,65.0668 C246.8762,65.4908 247.1062,65.9668 247.2152,66.4988 C247.3242,67.0308 247.3082,67.5918 247.1662,68.1828" id="Fill-49" fill="#343433"></path>
                <path d="M251.5666,72.3508 L253.6496,63.6498 L258.0556,68.7658 C258.1736,68.9108 258.2926,69.0658 258.4106,69.2288 C258.5286,69.3928 258.6496,69.5788 258.7736,69.7838 L260.1626,63.9818 L261.4946,63.9818 L259.4136,72.6758 L254.9156,67.4678 C254.7946,67.3278 254.6826,67.1788 254.5766,67.0228 C254.4696,66.8658 254.3736,66.7028 254.2846,66.5308 L252.8916,72.3508 L251.5666,72.3508 Z" id="Fill-51" fill="#343433"></path>
                <polygon id="Fill-53" fill="#343433" points="265.2716 72.3508 267.2746 63.9818 272.2206 63.9818 271.9446 65.1358 268.4386 65.1358 267.9366 67.2348 271.4426 67.2348 271.1566 68.4288 267.6506 68.4288 267.0026 71.1328 270.5086 71.1328 270.2176 72.3508"></polygon>
                <path d="M277.5226,72.3508 L278.4396,68.5198 L276.5406,63.9818 L278.0536,63.9818 L279.2326,66.8218 C279.2596,66.8948 279.2936,66.9908 279.3316,67.1078 C279.3696,67.2268 279.4056,67.3538 279.4426,67.4918 C279.5306,67.3578 279.6196,67.2328 279.7106,67.1138 C279.8006,66.9958 279.8936,66.8878 279.9856,66.7878 L282.5646,63.9818 L284.0056,63.9818 L279.8686,68.5198 L278.9516,72.3508 L277.5226,72.3508 Z" id="Fill-55" fill="#343433"></path>
            </g>
        </g>
    </g>
</svg>