<?xml version="1.0" encoding="UTF-8" standalone="no"?>
<svg width="54px" height="45px" viewBox="0 0 54 45" version="1.1" xmlns="http://www.w3.org/2000/svg" xmlns:xlink="http://www.w3.org/1999/xlink">
    <!-- Generator: Sketch 3.8.3 (29802) - http://www.bohemiancoding.com/sketch -->
    <title>Download</title>
    <desc>Created with Sketch.</desc>
    <defs></defs>
    <g id="Page-1" stroke="none" stroke-width="1" fill="none" fill-rule="evenodd">
        <g id="Startpage" transform="translate(-1030.000000, -2178.000000)" fill="#FFFFFF">
            <g id="Download" transform="translate(1030.000000, 2177.000000)">
                <path d="M25.8523141,4.90320505 C24.6414823,6.13945021 24.6414823,8.14305104 25.8523141,9.37727236 L32.3600402,16.0292512 L12.7643706,16.0933531 C11.2248723,16.0933531 9.97753906,17.3957037 9.97753906,19.0045958 C9.97753906,20.6154916 11.2248723,21.9158183 12.7643706,21.9158183 L32.4907457,21.8517164 L25.9138225,28.5778358 C24.7030099,29.8120371 24.7030099,31.815658 25.9138225,33.0498793 C26.5154134,33.6689938 27.3110825,33.9775391 28.1029267,33.9775391 C28.8928679,33.9775391 29.6827706,33.6689938 30.2901087,33.0498793 L44.0224609,19.0045954 L30.2228338,4.90320505 C29.0158463,3.66898373 27.0593016,3.66898373 25.8523141,4.90320505 Z" id="Page-1" transform="translate(27.000000, 18.977539) scale(-1, 1) rotate(-270.000000) translate(-27.000000, -18.977539) "></path>
                <rect id="Rectangle-189" x="0" y="40" width="54" height="6" rx="3"></rect>
            </g>
        </g>
    </g>
</svg>