<?xml version="1.0" encoding="UTF-8"?>
<svg width="22px" height="39px" viewBox="0 0 22 39" version="1.1" xmlns="http://www.w3.org/2000/svg" xmlns:xlink="http://www.w3.org/1999/xlink">
    <!-- Generator: Sketch 41.2 (35397) - http://www.bohemiancoding.com/sketch -->
    <title>Group 7</title>
    <desc>Created with Sketch.</desc>
    <defs></defs>
    <g id="Page-1" stroke="none" stroke-width="1" fill="none" fill-rule="evenodd" opacity="0.459596549">
        <g id="upi2" transform="translate(-577.000000, -544.000000)" fill="#000000">
            <g id="Group-2" transform="translate(258.000000, 198.000000)">
                <g id="Group-14" transform="translate(0.000000, 160.000000)">
                    <g id="Group-9" transform="translate(293.000000, 172.000000)">
                        <g id="Group-7" transform="translate(26.000000, 14.000000)">
                            <path d="M17.5200816,0.447593023 L4.11444898,0.447593023 C1.89155102,0.447593023 0.0835102041,2.32639535 0.0835102041,4.63374419 L0.0835102041,34.8111279 C0.0835102041,37.1198372 1.89155102,38.9995465 4.11444898,38.9995465 L17.5205306,38.9995465 C19.7465714,38.9995465 21.5550612,37.1193837 21.5550612,34.8111279 L21.5550612,4.63374419 C21.5550612,2.32594186 19.7461224,0.447593023 17.5200816,0.447593023 Z M19.6617143,34.8115814 C19.6617143,36.0677442 18.7062857,37.0885465 17.5200816,37.0885465 L4.11444898,37.0885465 C2.93453061,37.0885465 1.97595918,36.0677442 1.97595918,34.8115814 L1.97595918,4.63374419 C1.97595918,3.37531395 2.93408163,2.35904651 4.11444898,2.35904651 L17.5205306,2.35904651 C18.7067347,2.35904651 19.6621633,3.37486047 19.6621633,4.63374419 L19.6621633,34.8115814 L19.6617143,34.8115814 Z" id="Shape"></path>
                            <path d="M4.27653061,5.91666279 C4.27653061,5.28495349 4.75334694,4.77523256 5.34465306,4.77523256 L16.2957143,4.77523256 C16.8843265,4.77523256 17.3647347,5.28495349 17.3647347,5.91666279 L17.3647347,17.5259651 C17.3647347,18.153593 16.8843265,18.6646744 16.2957143,18.6646744 L5.34465306,18.6646744 C4.75379592,18.6646744 4.27653061,18.153593 4.27653061,17.5259651 L4.27653061,5.91666279 L4.27653061,5.91666279 Z" id="Shape"></path>
                            <g id="Group" transform="translate(4.040816, 20.406977)">
                                <path d="M5.17538776,6.18059302 C5.17538776,5.75930233 5.49326531,5.41782558 5.89061224,5.41782558 L7.69910204,5.41782558 C8.09195918,5.41782558 8.41073469,5.75930233 8.41073469,6.18059302 L8.41073469,8.1002093 C8.41073469,8.5215 8.09195918,8.85753488 7.69910204,8.85753488 L5.89061224,8.85753488 C5.49326531,8.85753488 5.17538776,8.5215 5.17538776,8.1002093 L5.17538776,6.18059302 Z" id="Shape"></path>
                                <path d="M0.158040816,6.18059302 C0.158040816,5.75930233 0.477265306,5.41782558 0.866530612,5.41782558 L2.68040816,5.41782558 C3.0755102,5.41782558 3.39204082,5.75930233 3.39204082,6.18059302 L3.39204082,8.1002093 C3.39204082,8.5215 3.0755102,8.85753488 2.68040816,8.85753488 L0.866530612,8.85753488 C0.477265306,8.85753488 0.158040816,8.5215 0.158040816,8.1002093 L0.158040816,6.18059302 Z" id="Shape"></path>
                                <path d="M10.0185306,6.18059302 C10.0185306,5.75930233 10.3341633,5.41782558 10.7256735,5.41782558 L12.540898,5.41782558 C12.9288163,5.41782558 13.2484898,5.75930233 13.2484898,6.18059302 L13.2484898,8.1002093 C13.2484898,8.5215 12.9288163,8.85753488 12.540898,8.85753488 L10.7261224,8.85753488 C10.3346122,8.85753488 10.0189796,8.5215 10.0189796,8.1002093 L10.0189796,6.18059302 L10.0185306,6.18059302 Z" id="Shape"></path>
                                <path d="M5.17538776,1.16954651 C5.17538776,0.754151163 5.49326531,0.412674419 5.89061224,0.412674419 L7.69910204,0.412674419 C8.09195918,0.412674419 8.41073469,0.754151163 8.41073469,1.16954651 L8.41073469,3.09777907 C8.41073469,3.51952326 8.09195918,3.85827907 7.69910204,3.85827907 L5.89061224,3.85827907 C5.49326531,3.85827907 5.17538776,3.51952326 5.17538776,3.09777907 L5.17538776,1.16954651 Z" id="Shape"></path>
                                <path d="M0.158040816,1.16954651 C0.158040816,0.754151163 0.477265306,0.412674419 0.866530612,0.412674419 L2.68040816,0.412674419 C3.0755102,0.412674419 3.39204082,0.754151163 3.39204082,1.16954651 L3.39204082,3.09777907 C3.39204082,3.51952326 3.0755102,3.85827907 2.68040816,3.85827907 L0.866530612,3.85827907 C0.477265306,3.85827907 0.158040816,3.51952326 0.158040816,3.09777907 L0.158040816,1.16954651 Z" id="Shape"></path>
                                <path d="M10.0185306,1.16954651 C10.0185306,0.754151163 10.3341633,0.412674419 10.7256735,0.412674419 L12.540898,0.412674419 C12.9288163,0.412674419 13.2484898,0.754151163 13.2484898,1.16954651 L13.2484898,3.09777907 C13.2484898,3.51952326 12.9288163,3.85827907 12.540898,3.85827907 L10.7261224,3.85827907 C10.3346122,3.85827907 10.0189796,3.51952326 10.0189796,3.09777907 L10.0189796,1.16954651 L10.0185306,1.16954651 Z" id="Shape"></path>
                                <path d="M5.17538776,11.3004767 C5.17538776,10.879186 5.49326531,10.5404302 5.89061224,10.5404302 L7.69910204,10.5404302 C8.09195918,10.5404302 8.41073469,10.879186 8.41073469,11.3004767 L8.41073469,13.222814 C8.41073469,13.6431977 8.09195918,13.9846744 7.69910204,13.9846744 L5.89061224,13.9846744 C5.49326531,13.9846744 5.17538776,13.6431977 5.17538776,13.222814 L5.17538776,11.3004767 Z" id="Shape"></path>
                                <path d="M0.158040816,11.3004767 C0.158040816,10.879186 0.477265306,10.5404302 0.866530612,10.5404302 L2.68040816,10.5404302 C3.0755102,10.5404302 3.39204082,10.879186 3.39204082,11.3004767 L3.39204082,13.222814 C3.39204082,13.6431977 3.0755102,13.9846744 2.68040816,13.9846744 L0.866530612,13.9846744 C0.477265306,13.9846744 0.158040816,13.6431977 0.158040816,13.222814 L0.158040816,11.3004767 Z" id="Shape"></path>
                                <path d="M10.0185306,11.3004767 C10.0185306,10.879186 10.3341633,10.5404302 10.7256735,10.5404302 L12.540898,10.5404302 C12.9288163,10.5404302 13.2484898,10.879186 13.2484898,11.3004767 L13.2484898,13.222814 C13.2484898,13.6431977 12.9288163,13.9846744 12.540898,13.9846744 L10.7261224,13.9846744 C10.3346122,13.9846744 10.0189796,13.6431977 10.0189796,13.222814 L10.0189796,11.3004767 L10.0185306,11.3004767 Z" id="Shape"></path>
                            </g>
                        </g>
                    </g>
                </g>
            </g>
        </g>
    </g>
</svg>