<?xml version="1.0" encoding="UTF-8" standalone="no"?>
<svg width="113px" height="41px" viewBox="0 0 113 41" version="1.1" xmlns="http://www.w3.org/2000/svg" xmlns:xlink="http://www.w3.org/1999/xlink">
    <!-- Generator: Sketch 41.2 (35397) - http://www.bohemiancoding.com/sketch -->
    <title>UPI logo</title>
    <desc>Created with Sketch.</desc>
    <defs>
        <polygon id="path-1" points="0 0.083388872 0 5.63542292 5.14916378 5.63542292 5.14916378 0.083388872 6.62959121e-21 0.083388872"></polygon>
    </defs>
    <g id="Page-1" stroke="none" stroke-width="1" fill="none" fill-rule="evenodd">
        <g id="upi2" transform="translate(-263.000000, -20.000000)">
            <g id="UPI-logo" transform="translate(263.000000, 20.000000)">
                <path d="M77.653176,5.92594588 L47.9636898,5.9197069 L49.6410794,0.0174691396 L82.509404,6.56734571e-05 C82.509404,6.56734571e-05 84.9890447,0.177219824 84.3914329,2.97737185 L81.2125945,14.4022548 C81.2125945,14.4022548 80.6559105,17.7440486 77.5501227,18.1109991 L50.5697013,18.0886701 L47.1764401,29.9903424 L41.4013737,29.9903424 L46.2292294,12.1826561 L75.8888759,12.226329" id="Fill-1" fill="#6D6E72"></path>
                <polygon id="Fill-3" fill="#6D6E72" points="89.1897749 1.64183641e-05 95.1419235 1.64183641e-05 86.8436797 29.8853798 80.9456667 29.8853798"></polygon>
                <path d="M10.255443,1.64183641e-05 L16.2480303,1.64183641e-05 C14.0739625,7.98541624 11.8643478,15.8883959 9.70625974,23.8045102 C10.3315916,23.9860973 32.1630938,24.0264865 33.1745498,23.8473621 C35.3575859,15.9399495 37.5512208,7.99444634 39.7564329,0.00724049863 L45.7553795,0.00724049863 C45.6826551,0.356459106 45.6350418,0.667915476 45.5522078,0.969520827 C44.3237201,5.44943569 43.0931126,9.92885801 41.8576133,14.4069669 C40.6514646,18.7791773 39.4373261,23.1492533 38.2313405,27.5214637 C38.0457792,28.1942882 37.7566753,28.7901107 37.2283636,29.2693627 C36.8027792,29.6556868 36.3230592,29.8628866 35.7613203,29.8935889 C35.490316,29.9085296 35.2181703,29.9080371 34.9465137,29.9082013 C25.1101328,29.9086938 15.2737518,29.908858 5.43720779,29.9075445 C5.11157864,29.9075445 4.78268831,29.9154254 4.46048341,29.8768422 C3.41804618,29.7520626 2.71248918,29.00946 2.73303463,27.9496546 C2.74542713,27.3034278 2.85924242,26.6439021 3.02980231,26.0186908 C4.61115007,20.2189036 6.21255411,14.4248629 7.81330592,8.63049377 C8.54821356,5.97022621 9.29388312,3.31307814 10.0371068,0.655273335 C10.0949928,0.448401946 10.1726089,0.2471128 10.255443,1.64183641e-05" id="Fill-5" fill="#6D6E72"></path>
                <polygon id="Fill-7" fill="#008C3C" points="105.501741 0.130936455 112.939195 14.9288081 97.341771 29.8240407"></polygon>
                <polygon id="Fill-9" fill="#FF7A07" points="100.291169 0.0127734874 107.728623 14.8094959 92.1311991 29.7047285"></polygon>
                <g id="Group-13" transform="translate(0.000000, 34.725497)">
                    <mask id="mask-2" fill="white">
                        <use xlink:href="#path-1"></use>
                    </mask>
                    <g id="Clip-12"></g>
                    <path d="M5.14916378,0.083388872 L4.19216955,3.30729888 C3.97905123,4.01755731 3.72223304,4.53719854 3.42171501,4.86638674 C2.94183189,5.37913226 2.35514502,5.63542292 1.66149134,5.63542292 C1.10562266,5.63542292 0.671885281,5.46614959 0.359626984,5.12743874 C0.0507929293,4.78413074 -0.0591089466,4.35856674 0.0297582973,3.85058255 C0.0488362193,3.74254971 0.0728059163,3.6282779 0.101993506,3.50842384 C0.131181097,3.38840559 0.165749639,3.26149164 0.205536075,3.12751779 L1.11002525,0.083388872 L1.90868903,0.083388872 L0.975827561,3.2298042 C0.947618326,3.32388142 0.923648629,3.41089875 0.903755411,3.490692 C0.883862193,3.57081362 0.868045455,3.64486044 0.856142136,3.71299666 C0.792712121,4.07518577 0.843097403,4.36086531 1.00729798,4.57019945 C1.17394444,4.7795336 1.43108874,4.88411858 1.77922006,4.88411858 C2.18556349,4.88411858 2.51673665,4.7524433 2.77322872,4.48892855 C3.02988384,4.22327942 3.24789394,3.7918048 3.42725902,3.19450471 L4.3505,0.083388872 L5.14916378,0.083388872 Z" id="Fill-11" fill="#000000" mask="url(#mask-2)"></path>
                </g>
                <polygon id="Fill-14" fill="#000000" points="11.0450896 34.808886 9.31829307 40.6290319 6.77457013 36.4103332 5.63168846 40.2550216 4.82943737 40.2550216 6.53927576 34.5125345 9.08430317 38.7241733 10.2464258 34.808886"></polygon>
                <polygon id="Fill-16" fill="#000000" points="13.1505258 34.808886 11.5311853 40.2550216 10.7289342 40.2550216 12.3482747 34.808886"></polygon>
                <polygon id="Fill-18" fill="#000000" points="17.1231851 34.808886 16.9004463 35.5601903 15.0298316 35.5601903 14.6124001 36.9639605 16.4830149 36.9639605 16.276582 37.6623977 14.4023799 37.6623977 13.6330668 40.2550216 12.8308157 40.2550216 14.4537436 34.808886"></polygon>
                <polygon id="Fill-20" fill="#000000" points="18.790726 34.808886 17.1713854 40.2550216 16.3691343 40.2550216 17.9884749 34.808886"></polygon>
                <polygon id="Fill-22" fill="#000000" points="22.8754885 34.808886 22.6527496 35.5601903 20.666526 35.5601903 20.24779 36.9710204 22.2340137 36.9710204 22.0277439 37.6694576 20.0413571 37.6694576 19.4959242 39.5037172 21.482311 39.5037172 21.2561479 40.2550216 18.4710974 40.2550216 20.090438 34.808886"></polygon>
                <path d="M24.4814745,35.5602067 L23.3108727,39.5037337 L23.9205509,39.5037337 C24.3689636,39.5037337 24.7270416,39.4592399 24.9949478,39.3697598 C25.2553532,39.2827425 25.4974961,39.120529 25.7213763,38.8829553 C26.1096202,38.478571 26.3573071,37.9717361 26.4639478,37.3626148 C26.5301498,36.9840073 26.5171051,36.6525205 26.4244874,36.3679903 C26.3302392,36.0786987 26.1707674,35.8695287 25.9459088,35.740152 C25.7309968,35.6201338 25.3923229,35.5602067 24.9298872,35.5602067 L24.4814745,35.5602067 Z M23.9053864,34.8089024 L24.998372,34.8089024 C25.41189,34.8089024 25.7256159,34.8300821 25.9402017,34.8724415 C26.1596794,34.9125023 26.3553504,34.9888477 26.5270517,35.1016418 C26.8438756,35.3062147 27.068082,35.6130739 27.1996707,36.0222195 C27.3312595,36.4315293 27.3526202,36.8887808 27.2640791,37.3943022 C27.1703201,37.930526 26.9687789,38.426689 26.6601079,38.8829553 C26.5061801,39.1087078 26.3383922,39.3068775 26.1567443,39.4773001 C25.9749333,39.6478869 25.775675,39.7930252 25.5583172,39.9128793 C25.3065538,40.0447188 25.0512032,40.1351839 24.7927544,40.1846032 C24.6554586,40.2080815 24.4935408,40.2258133 24.3070012,40.2374704 C24.1204615,40.2492916 23.9034297,40.255038 23.6559059,40.255038 L22.2860459,40.255038 L23.9053864,34.8089024 Z" id="Fill-24" fill="#000000"></path>
                <path d="M31.8347416,35.5602067 L31.306919,37.3343752 L31.8288714,37.3343752 C32.1580879,37.3343752 32.425831,37.2493281 32.6321009,37.0787413 C32.8382076,36.9081545 32.9694703,36.6620432 33.0260518,36.3397507 C33.1170388,35.8201095 32.8331528,35.5602067 32.1745569,35.5602067 L31.8347416,35.5602067 Z M31.2586535,34.8089024 L32.3552264,34.8089024 C32.8316853,34.8089024 33.1807949,34.8888598 33.4027185,35.0487747 C33.5855078,35.1781514 33.7148137,35.3603953 33.7904732,35.5955062 C33.8646651,35.8376771 33.8785251,36.0928185 33.8315641,36.3609304 C33.7630792,36.7513591 33.594476,37.0945029 33.3254284,37.3908544 C32.9259335,37.8307023 32.3795222,38.0503801 31.6858685,38.0503801 L31.0939638,38.0503801 L30.4381398,40.255038 L29.6358887,40.255038 L31.2586535,34.8089024 Z" id="Fill-26" fill="#000000"></path>
                <path d="M35.4333431,38.2762147 L36.9607183,38.2762147 L36.7184124,36.3398328 L35.4333431,38.2762147 Z M34.9642219,38.9746519 L34.0814196,40.2551201 L33.2090531,40.2551201 L37.2225913,34.4208544 L38.0680531,40.2551201 L37.2307443,40.2551201 L37.0626303,38.9746519 L34.9642219,38.9746519 Z" id="Fill-28" fill="#000000"></path>
                <polygon id="Fill-30" fill="#000000" points="41.272981 37.8176497 40.548346 40.2551201 39.7460949 40.2551201 40.4911123 37.7611706 39.6034182 34.8088203 40.4651859 34.8088203 41.0843215 36.9745667 42.8823749 34.8088203 43.8038222 34.8088203"></polygon>
                <polygon id="Fill-32" fill="#000000" points="49.4324615 34.2938747 48.8333821 40.2550544 48.069776 40.2550544 48.4360069 36.7842122 45.666447 40.6359605 45.181346 36.7842122 43.494499 40.2550544 42.6748006 40.2550544 45.5666548 34.4244007 46.1567659 38.8759118"></polygon>
                <polygon id="Fill-34" fill="#000000" points="54.2643773 34.808886 54.0418016 35.5601903 52.0554149 35.5601903 51.6366789 36.9710204 53.6229026 36.9710204 53.4166328 37.6694576 51.430246 37.6694576 50.8848131 39.5037172 52.8711999 39.5037172 52.6448737 40.2550216 49.8598232 40.2550216 51.4793268 34.808886"></polygon>
                <polygon id="Fill-36" fill="#000000" points="59.8905544 34.808886 58.1635948 40.6290319 55.6200349 36.4103332 54.4771532 40.2550216 53.6749022 40.2550216 55.3847405 34.5125345 57.929768 38.7241733 59.0918906 34.808886"></polygon>
                <polygon id="Fill-38" fill="#000000" points="62.4705091 35.5602067 61.0737443 40.255038 60.2714932 40.255038 61.668258 35.5602067 60.375525 35.5602067 60.5982638 34.8089024 63.9297255 34.8089024 63.7071498 35.5602067"></polygon>
                <path d="M67.3533646,35.5037768 L66.7270544,36.0188209 C66.5383949,35.6426762 66.279457,35.4543576 65.9502405,35.4543576 C65.7120111,35.4543576 65.5016648,35.5284044 65.3192016,35.6766622 C65.1367384,35.8247559 65.0260212,36.0106117 64.986887,36.2339015 C64.9555797,36.4126975 64.9823214,36.5668659 65.0671121,36.6960784 C65.1099967,36.7573189 65.1766879,36.8266044 65.2671857,36.9040991 C65.3573574,36.9815938 65.4726403,37.067626 65.6127081,37.1615391 C66.0294873,37.4344123 66.2969043,37.6813445 66.4147961,37.9023357 C66.5344815,38.1257896 66.5625277,38.418529 66.4992608,38.780554 C66.4169159,39.2511043 66.1959707,39.6320103 65.8365883,39.9234363 C65.4817716,40.2151906 65.055861,40.3608215 64.5583675,40.3608215 C64.1567528,40.3608215 63.832102,40.2738042 63.5847413,40.0999337 C63.459838,40.0129164 63.3487947,39.8994655 63.2519375,39.7594168 C63.1549173,39.6196966 63.0680068,39.4497665 62.9908798,39.2497908 L63.6734455,38.8335853 C63.7875869,39.1276382 63.9144469,39.3297483 64.0541886,39.4402438 C64.1934411,39.5509036 64.3904166,39.6060693 64.645115,39.6060693 C64.9275335,39.6060693 65.1621756,39.5308732 65.3485522,39.3803168 C65.5347658,39.2299246 65.6521684,39.0158291 65.7009231,38.7383588 C65.7341872,38.5479057 65.7040212,38.3868416 65.6104253,38.2550021 C65.5637903,38.1868659 65.4902506,38.1103563 65.3894801,38.0258018 C65.2887095,37.941083 65.1587514,37.8458565 64.9997687,37.7401222 C64.6359837,37.4979514 64.3925364,37.2674375 64.2697528,37.0487449 C64.1538177,36.8300523 64.1246302,36.556194 64.1825162,36.2268416 C64.259317,35.787322 64.4750443,35.4226701 64.8293719,35.1333785 C65.1838625,34.8419526 65.5924887,34.6959933 66.0549245,34.6959933 C66.3562579,34.6959933 66.6024772,34.7572338 66.7934195,34.8793864 C66.9894166,35.0017033 67.1757932,35.2098881 67.3533646,35.5037768" id="Fill-40" fill="#000000"></path>
                <polygon id="Fill-42" fill="#000000" points="71.6613877 34.808886 70.0418841 40.2550216 69.239633 40.2550216 70.8591367 34.808886"></polygon>
                <polygon id="Fill-44" fill="#000000" points="77.5573136 34.808886 75.830354 40.6290319 73.2867941 36.4103332 72.1439124 40.2550216 71.3416613 40.2550216 73.0514997 34.5125345 75.5965271 38.7241733 76.7586498 34.808886"></polygon>
                <polygon id="Fill-46" fill="#000000" points="80.1372683 35.5602067 78.7405035 40.255038 77.9382524 40.255038 79.3350172 35.5602067 78.0422841 35.5602067 78.2650229 34.8089024 81.5964847 34.8089024 81.3739089 35.5602067"></polygon>
                <polygon id="Fill-48" fill="#000000" points="85.0857388 34.808886 84.8631631 35.5601903 82.8767763 35.5601903 82.4580404 36.9710204 84.4442641 36.9710204 84.2379942 37.6694576 82.2516075 37.6694576 81.7061746 39.5037172 83.6925613 39.5037172 83.4662352 40.2550216 80.6811847 40.2550216 82.3006883 34.808886"></polygon>
                <path d="M86.6918063,35.5602067 L86.1752349,37.3097476 L86.5430964,37.3097476 C86.8139377,37.3097476 87.0205336,37.2839708 87.1627212,37.2320888 C87.3140401,37.1805351 87.448727,37.0923685 87.5662926,36.9675889 C87.7275582,36.7937185 87.8288179,36.5891456 87.8700719,36.3538705 C87.9181743,36.0786987 87.8746375,35.8777379 87.7391354,35.7506598 C87.6037962,35.6237458 87.3667082,35.5602067 87.0281974,35.5602067 L86.6918063,35.5602067 Z M87.035372,37.9587656 L87.9925293,40.255038 L87.1446216,40.255038 L86.2548078,38.0152448 L85.9640733,38.0152448 L85.2984658,40.255038 L84.4962147,40.255038 L86.1157183,34.8089024 L87.1772335,34.8089024 C87.5227558,34.8089024 87.7916404,34.8405898 87.9837241,34.9041289 C88.1741772,34.9629067 88.3303879,35.0711037 88.4523561,35.2285558 C88.6839001,35.5203101 88.7593965,35.896619 88.6786823,36.3573183 C88.5306245,37.2017148 87.9829088,37.7354758 87.035372,37.9587656 L87.035372,37.9587656 Z" id="Fill-50" fill="#000000"></path>
                <polygon id="Fill-52" fill="#000000" points="93.0625768 34.808886 92.840001 35.5601903 90.9692232 35.5601903 90.5517918 36.9639605 92.4224065 36.9639605 92.2161367 37.6623977 90.3417716 37.6623977 89.5724584 40.2550216 88.7702074 40.2550216 90.3931352 34.808886"></polygon>
                <path d="M94.105438,38.2762147 L95.6328131,38.2762147 L95.3903442,36.3398328 L94.105438,38.2762147 Z M93.6363167,38.9746519 L92.7533514,40.2551201 L91.8809848,40.2551201 L95.8946861,34.4208544 L96.7399848,40.2551201 L95.902676,40.2551201 L95.7347251,38.9746519 L93.6363167,38.9746519 Z" id="Fill-54" fill="#000000"></path>
                <path d="M102.807433,35.2956576 L102.544418,36.177488 C102.158783,35.6977434 101.64156,35.4578711 100.992258,35.4578711 C100.41992,35.4578711 99.9217746,35.6624439 99.4974947,36.0717537 C99.071258,36.4786008 98.801069,37.0087498 98.6866014,37.662529 C98.5793085,38.2739489 98.666219,38.7512308 98.94717,39.0945388 C99.2260012,39.4355482 99.674903,39.6059708 100.293876,39.6059708 C100.809958,39.6059708 101.293428,39.4462201 101.744124,39.1263904 L101.461216,40.0822676 C100.931111,40.2679593 100.451228,40.3608872 100.021567,40.3608872 C99.2369261,40.3608872 98.6489348,40.1105071 98.2579189,39.6095829 C97.8659247,39.1134199 97.7424889,38.4525807 97.8867962,37.6272296 C98.0343648,36.78546 98.4110315,36.0870228 99.0176115,35.5319179 C99.6261483,34.9771414 100.31703,34.6995068 101.090094,34.6995068 C101.699609,34.6995068 102.272109,34.8983332 102.807433,35.2956576" id="Fill-56" fill="#000000"></path>
                <polygon id="Fill-58" fill="#000000" points="106.728663 34.808886 106.506087 35.5601903 104.519701 35.5601903 104.100965 36.9710204 106.087188 36.9710204 105.880918 37.6694576 103.894532 37.6694576 103.349099 39.5037172 105.335486 39.5037172 105.109159 40.2550216 102.324109 40.2550216 103.943613 34.808886"></polygon>
            </g>
        </g>
    </g>
</svg>