<?xml version="1.0" encoding="UTF-8"?>
<svg width="316px" height="114px" viewBox="0 0 316 114" version="1.1" xmlns="http://www.w3.org/2000/svg" xmlns:xlink="http://www.w3.org/1999/xlink">
    <!-- Generator: Sketch 41.2 (35397) - http://www.bohemiancoding.com/sketch -->
    <title>UPI logo</title>
    <desc>Created with Sketch.</desc>
    <defs>
        <polygon id="path-1" points="0 0.233471893 0 15.7780388 14.3994315 15.7780388 14.3994315 0.233471893 1.85393878e-20 0.233471893"></polygon>
    </defs>
    <g id="Page-1" stroke="none" stroke-width="1" fill="none" fill-rule="evenodd">
        <g id="resources" transform="translate(-653.000000, -1293.000000)">
            <g id="Group-2" transform="translate(258.000000, 273.000000)">
                <g id="Group-6" transform="translate(0.000000, 954.000000)">
                    <g id="Group-5" transform="translate(330.000000, 22.000000)">
                        <g id="UPI-logo" transform="translate(65.000000, 44.000000)">
                            <path d="M217.154014,16.591444 L134.128548,16.5739761 L138.819302,0.0489100401 L230.734263,0.000183872331 C230.734263,0.000183872331 237.668479,0.496179486 235.997281,8.33603601 L227.107786,40.3233861 C227.107786,40.3233861 225.551042,49.6797297 216.86583,50.7071163 L141.416156,50.6445998 L131.927036,83.966863 L115.777293,83.966863 L129.278199,34.108961 L212.220219,34.2312361" id="Fill-1" fill="#6D6E72"></path>
                            <polygon id="Fill-3" fill="#6D6E72" points="249.415654 4.59680825e-05 266.0606 4.59680825e-05 242.854892 83.672989 226.361333 83.672989"></polygon>
                            <path d="M28.678938,4.59680825e-05 L45.4369697,4.59680825e-05 C39.3572756,22.3575424 33.178176,44.4842791 27.1431688,66.6477902 C28.8918846,67.1561972 89.942811,67.2692787 92.7713074,66.7677669 C98.8760808,44.6286189 105.010494,22.3828249 111.177281,0.0202719245 L127.953097,0.0202719245 C127.749726,0.998013046 127.616577,1.87002758 127.384935,2.71446126 C123.949518,15.2573123 120.508173,27.7987844 117.053149,40.336579 C113.680202,52.5778794 110.284912,64.813204 106.912421,77.0545045 C106.393506,78.9382765 105.585039,80.6064582 104.107636,81.9482666 C102.917506,83.0298956 101.575988,83.6100128 100.005108,83.6959731 C99.2472554,83.737804 98.4862107,83.736425 97.7265339,83.7368847 C70.2194863,83.7382637 42.7124387,83.7387234 15.2049351,83.7350459 C14.2943261,83.7350459 13.3745974,83.7571106 12.4735642,83.6490856 C9.55843001,83.2997282 7.58536797,81.2205918 7.64282251,78.2533521 C7.67747763,76.4440483 7.99575758,74.5975104 8.4727215,72.8470459 C12.8948975,56.6088206 17.3731602,40.3866842 21.8495988,24.1636284 C23.9047388,16.7154199 25.989974,9.2759454 28.0683694,1.83463215 C28.2302453,1.25543431 28.4472958,0.691865615 28.678938,4.59680825e-05" id="Fill-5" fill="#6D6E72"></path>
                            <polygon id="Fill-7" fill="#008C3C" points="295.031416 0.36659546 315.829962 41.7976285 272.212386 83.5012523"></polygon>
                            <polygon id="Fill-9" fill="#FF7A07" points="280.46026 0.0357631684 301.258805 41.4635784 257.641229 83.1672022"></polygon>
                            <g id="Group-13" transform="translate(0.000000, 97.224334)">
                                <mask id="mask-2" fill="white">
                                    <use xlink:href="#path-1"></use>
                                </mask>
                                <g id="Clip-12"></g>
                                <path d="M14.3994315,0.233471893 L11.7232352,9.25976463 C11.1272583,11.2483439 10.4090765,12.7032337 9.56868975,13.6248938 C8.22671573,15.060477 6.58606926,15.7780388 4.64629437,15.7780388 C3.09182973,15.7780388 1.87890043,15.3041078 1.00568254,14.3557863 C0.142040404,13.3945937 -0.165295815,12.203101 0.0832178932,10.7808485 C0.136568543,10.4783785 0.203598846,10.1584407 0.285220779,9.82287365 C0.366842713,9.48684696 0.463512266,9.13151368 0.574773449,8.75641413 L3.10414141,0.233471893 L5.33757287,0.233471893 L2.72886291,9.04279528 C2.64997691,9.3061924 2.58294661,9.54982324 2.52731602,9.77322812 C2.47168543,9.99755236 2.42745455,10.2048684 2.39416739,10.395636 C2.21678788,11.4096919 2.35768831,12.2095365 2.81686869,12.7956296 C3.28288889,13.3817226 4.00198268,13.6745393 4.97551804,13.6745393 C6.11184127,13.6745393 7.03795382,13.3058753 7.75522367,12.5680876 C8.47294949,11.824324 9.08260606,10.6162828 9.58419336,8.94396391 L12.166,0.233471893 L14.3994315,0.233471893 Z" id="Fill-11" fill="#000000" mask="url(#mask-2)"></path>
                            </g>
                            <polygon id="Fill-14" fill="#000000" points="30.8871532 97.4578058 26.0582355 113.753031 18.9448156 101.941533 15.7487925 112.705879 13.5053293 112.705879 18.2868242 96.6280819 25.4038921 108.419814 28.6537218 97.4578058"></polygon>
                            <polygon id="Fill-16" fill="#000000" points="36.7749218 97.4578058 32.2465004 112.705879 30.0030372 112.705879 34.5314586 97.4578058"></polygon>
                            <polygon id="Fill-18" fill="#000000" points="47.8843053 97.4578058 47.2614251 99.5613052 42.0303255 99.5613052 40.8629951 103.491576 46.0940947 103.491576 45.5168133 105.447059 40.275682 105.447059 38.1243284 112.705879 35.8808652 112.705879 40.4193183 97.4578058"></polygon>
                            <polygon id="Fill-20" fill="#000000" points="52.5475169 97.4578058 48.0190955 112.705879 45.7756323 112.705879 50.3040537 97.4578058"></polygon>
                            <polygon id="Fill-22" fill="#000000" points="63.9703925 97.4578058 63.3475123 99.5613052 57.7931169 99.5613052 56.6221385 103.511343 62.1765339 103.511343 61.5997085 105.466825 56.0448571 105.466825 54.5195758 110.602379 60.0744271 110.602379 59.4419711 112.705879 51.6536883 112.705879 56.1821097 97.4578058"></polygon>
                            <path d="M68.4614684,99.5613512 L65.1879273,110.602425 L66.8928681,110.602425 C68.1468364,110.602425 69.148187,110.477852 69.897376,110.227325 C70.6255896,109.983695 71.3027325,109.52953 71.9288046,108.864372 C73.0145131,107.732178 73.7071596,106.313143 74.005376,104.607727 C74.1905074,103.547703 74.1540283,102.619608 73.8950268,101.822981 C73.6314655,101.013023 73.1855088,100.42739 72.5567007,100.065161 C71.9557079,99.7291347 71.0086199,99.5613512 69.7154367,99.5613512 L68.4614684,99.5613512 Z M66.8504612,97.4578517 L69.9069518,97.4578517 C71.0633385,97.4578517 71.9406603,97.5171506 72.5407411,97.6357482 C73.1545016,97.7479103 73.7016877,97.9616619 74.1818436,98.2774627 C75.0678291,98.850225 75.6948133,99.7093684 76.062796,100.854893 C76.4307786,102.000877 76.4905131,103.281088 76.2429114,104.696446 C75.980718,106.197763 75.4171163,107.586919 74.5539302,108.864372 C74.1234771,109.496433 73.6542649,110.051268 73.1462938,110.528416 C72.6378667,111.006025 72.0806488,111.412383 71.4728162,111.74795 C70.76877,112.117073 70.0546921,112.370357 69.3319504,112.508721 C68.9480081,112.574456 68.4952115,112.624101 67.9735608,112.656739 C67.45191,112.689836 66.8449893,112.705924 66.1527988,112.705924 L62.3220398,112.705924 L66.8504612,97.4578517 Z" id="Fill-24" fill="#000000"></path>
                            <path d="M89.024587,99.5613512 L87.5485524,104.528662 L89.0081714,104.528662 C89.9288121,104.528662 90.6775452,104.290548 91.2543706,103.812939 C91.83074,103.335331 92.1978107,102.646269 92.3560387,101.743916 C92.6104802,100.289026 91.8166043,99.5613512 89.974867,99.5613512 L89.024587,99.5613512 Z M87.4135798,97.4578517 L90.4801022,97.4578517 C91.8125004,97.4578517 92.7887717,97.6817163 93.409372,98.1294454 C93.9205351,98.4916739 94.2821339,99.0019196 94.4937126,99.6601826 C94.7011873,100.338212 94.7399463,101.052556 94.6086216,101.803215 C94.4171065,102.896336 93.9456144,103.857069 93.1932335,104.686792 C92.0760618,105.918277 90.5480444,106.53333 88.6082696,106.53333 L86.9530315,106.53333 L85.1190459,112.705924 L82.8755827,112.705924 L87.4135798,97.4578517 Z" id="Fill-26" fill="#000000"></path>
                            <path d="M99.087933,107.165621 L103.359177,107.165621 L102.681578,101.744146 L99.087933,107.165621 Z M97.7760543,109.121104 L95.3073328,112.706154 L92.8677945,112.706154 L104.091494,96.3713961 L106.455795,112.706154 L104.114294,112.706154 L103.64417,109.121104 L97.7760543,109.121104 Z" id="Fill-28" fill="#000000"></path>
                            <polygon id="Fill-30" fill="#000000" points="115.418248 105.881733 113.391835 112.706154 111.148372 112.706154 113.231783 105.723603 110.749382 97.4576219 113.159281 97.4576219 114.890669 103.521272 119.918854 97.4576219 122.495644 97.4576219"></polygon>
                            <polygon id="Fill-32" fill="#000000" points="138.23591 96.015879 136.560608 112.70597 134.425214 112.70597 135.449365 102.988318 127.704401 113.77243 126.347835 102.988318 121.630634 112.70597 119.33838 112.70597 127.425336 96.3813252 129.075558 108.844652"></polygon>
                            <polygon id="Fill-34" fill="#000000" points="151.74817 97.4578058 151.125746 99.5613052 145.570895 99.5613052 144.399916 103.511343 149.954312 103.511343 149.377486 105.466825 143.822635 105.466825 142.297354 110.602379 147.852205 110.602379 147.219293 112.705879 139.43101 112.705879 143.959887 97.4578058"></polygon>
                            <polygon id="Fill-36" fill="#000000" points="167.48155 97.4578058 162.652177 113.753031 155.539213 101.941533 152.34319 112.705879 150.099726 112.705879 154.881221 96.6280819 161.998289 108.419814 165.248119 97.4578058"></polygon>
                            <polygon id="Fill-38" fill="#000000" points="174.696291 99.5613512 170.790294 112.705924 168.546831 112.705924 172.452828 99.5613512 168.837751 99.5613512 169.460631 97.4578517 178.776932 97.4578517 178.154507 99.5613512"></polygon>
                            <path d="M188.351002,99.4033589 L186.59955,100.845378 C186.071972,99.7922489 185.347862,99.264995 184.427221,99.264995 C183.761022,99.264995 183.172797,99.472311 182.662546,99.8874028 C182.152295,100.302035 181.842679,100.822394 181.733242,101.44756 C181.645692,101.948152 181.720474,102.379792 181.957588,102.741561 C182.077513,102.913022 182.264012,103.107007 182.517086,103.323977 C182.769247,103.540946 183.091631,103.781819 183.483325,104.044756 C184.648832,104.808746 185.396653,105.500106 185.726332,106.118836 C186.061028,106.744462 186.139458,107.564073 185.962534,108.577669 C185.73226,109.895114 185.114396,110.961574 184.109397,111.777507 C183.117167,112.59436 181.926125,113.002097 180.534904,113.002097 C179.411804,113.002097 178.503931,112.758466 177.812197,112.271664 C177.46291,112.028033 177.152382,111.710394 176.881524,111.318286 C176.610211,110.927098 176.367169,110.451328 176.151487,109.891437 L178.060255,108.726146 C178.379446,109.549434 178.734205,110.115301 179.124988,110.424666 C179.514402,110.734491 180.065236,110.888944 180.77749,110.888944 C181.567262,110.888944 182.223429,110.67841 182.744624,110.256883 C183.265363,109.835815 183.593674,109.236392 183.730015,108.459531 C183.823037,107.926301 183.738679,107.475354 183.476941,107.106231 C183.346529,106.915463 183.140878,106.701252 182.859077,106.464516 C182.577276,106.227321 182.213853,105.960706 181.769265,105.664671 C180.751954,104.986642 180.071164,104.34125 179.727804,103.728956 C179.403597,103.116661 179.321975,102.349913 179.483851,101.427793 C179.698621,100.197228 180.301894,99.1762766 181.292757,98.366319 C182.284076,97.5503855 183.426783,97.1417292 184.719966,97.1417292 C185.562633,97.1417292 186.251175,97.3131902 186.785138,97.6551927 C187.333236,97.9976549 187.854431,98.5805302 188.351002,99.4033589" id="Fill-40" fill="#000000"></path>
                            <polygon id="Fill-42" fill="#000000" points="200.398217 97.4578058 195.86934 112.705879 193.625876 112.705879 198.154754 97.4578058"></polygon>
                            <polygon id="Fill-44" fill="#000000" points="216.885939 97.4578058 212.056565 113.753031 204.943601 101.941533 201.747578 112.705879 199.504115 112.705879 204.28561 96.6280819 211.402678 108.419814 214.652507 97.4578058"></polygon>
                            <polygon id="Fill-46" fill="#000000" points="224.100679 99.5613512 220.194682 112.705924 217.951219 112.705924 221.857216 99.5613512 218.24214 99.5613512 218.86502 97.4578517 228.18132 97.4578517 227.558896 99.5613512"></polygon>
                            <polygon id="Fill-48" fill="#000000" points="237.93888 97.4578058 237.316456 99.5613052 231.761605 99.5613052 230.590626 103.511343 236.145022 103.511343 235.568196 105.466825 230.013345 105.466825 228.488063 110.602379 234.042915 110.602379 233.410003 112.705879 225.62172 112.705879 230.150597 97.4578058"></polygon>
                            <path d="M242.430184,99.5613512 L240.985613,104.45971 L242.014323,104.45971 C242.771719,104.45971 243.349457,104.38754 243.747079,104.242281 C244.170236,104.097941 244.546883,103.851093 244.87565,103.501735 C245.326623,103.014933 245.609792,102.442171 245.725157,101.783448 C245.859673,101.013023 245.737924,100.450374 245.358998,100.094581 C244.980528,99.7392477 244.31752,99.5613512 243.370888,99.5613512 L242.430184,99.5613512 Z M243.390952,106.276828 L246.067604,112.705924 L243.696464,112.705924 L241.208135,106.434959 L240.395108,106.434959 L238.533763,112.705924 L236.2903,112.705924 L240.819177,97.4578517 L243.787662,97.4578517 C244.753901,97.4578517 245.505826,97.5465701 246.042981,97.7244666 C246.575575,97.8890324 247.012412,98.191962 247.353491,98.6327959 C248.000995,99.4496488 248.212118,100.503237 247.986403,101.793102 C247.572366,104.15724 246.040701,105.651663 243.390952,106.276828 L243.390952,106.276828 Z" id="Fill-50" fill="#000000"></path>
                            <polygon id="Fill-52" fill="#000000" points="260.24579 97.4578058 259.623366 99.5613052 254.39181 99.5613052 253.22448 103.491576 258.455579 103.491576 257.878754 105.447059 252.637167 105.447059 250.485813 112.705879 248.24235 112.705879 252.780803 97.4578058"></polygon>
                            <path d="M263.16211,107.165621 L267.433354,107.165621 L266.755299,101.744146 L263.16211,107.165621 Z M261.850231,109.121104 L259.381053,112.706154 L256.941515,112.706154 L268.165671,96.3713961 L270.529515,112.706154 L268.188014,112.706154 L267.718346,109.121104 L261.850231,109.121104 Z" id="Fill-54" fill="#000000"></path>
                            <path d="M287.496891,98.8206675 L286.761382,101.289613 C285.682969,99.9464258 284.236574,99.2748322 282.420828,99.2748322 C280.820308,99.2748322 279.427263,99.8475945 278.240782,100.993579 C277.048828,102.132668 276.293255,103.616977 275.973151,105.447426 C275.673111,107.159278 275.916152,108.49557 276.70182,109.456762 C277.481561,110.41152 278.736897,110.888668 280.467829,110.888668 C281.911033,110.888668 283.263038,110.441399 284.52339,109.545941 L283.732251,112.222202 C282.249832,112.742101 280.907858,113.002281 279.706328,113.002281 C277.512112,113.002281 275.867818,112.301267 274.774357,110.898781 C273.678161,109.509626 273.332978,107.65941 273.736528,105.348595 C274.149197,102.991811 275.20253,101.036329 276.898808,99.4821482 C278.600556,97.9288867 280.53258,97.1515664 282.694421,97.1515664 C284.398906,97.1515664 285.999881,97.7082399 287.496891,98.8206675" id="Fill-56" fill="#000000"></path>
                            <polygon id="Fill-58" fill="#000000" points="298.462456 97.4578058 297.840032 99.5613052 292.28518 99.5613052 291.114202 103.511343 296.668597 103.511343 296.091772 105.466825 290.536921 105.466825 289.011639 110.602379 294.566491 110.602379 293.933579 112.705879 286.145296 112.705879 290.674173 97.4578058"></polygon>
                        </g>
                    </g>
                </g>
            </g>
        </g>
    </g>
</svg>